<svg width="24" height="24" viewBox="0 0 24 24" fill="none" xmlns="http://www.w3.org/2000/svg">
<path d="M1.79005 0.773006L22.86 10.85C23.073 10.9517 23.2528 11.1116 23.3787 11.3112C23.5046 11.5108 23.5714 11.742 23.5714 11.978C23.5714 12.214 23.5046 12.4452 23.3787 12.6448C23.2528 12.8444 23.073 13.0043 22.86 13.106L1.79005 23.183C1.57405 23.2865 1.33288 23.3257 1.09523 23.296C0.857575 23.2664 0.633449 23.169 0.449515 23.0157C0.265581 22.8623 0.129582 22.6593 0.0577004 22.4308C-0.0141815 22.2024 -0.0189206 21.9581 0.0440471 21.727L2.15205 13.999C2.17785 13.9043 2.23096 13.8193 2.30476 13.7545C2.37856 13.6898 2.46978 13.6482 2.56705 13.635L12.777 12.248C12.8197 12.2419 12.8601 12.2249 12.8943 12.1987C12.9284 12.1724 12.9552 12.1377 12.972 12.098L12.99 12.036C12.9979 11.9802 12.9867 11.9233 12.9582 11.8747C12.9297 11.826 12.8856 11.7884 12.833 11.768L12.778 11.753L2.57805 10.366C2.48096 10.3526 2.38996 10.3109 2.31635 10.2462C2.24275 10.1815 2.18978 10.0966 2.16405 10.002L0.0440471 2.23001C-0.0191756 1.99887 -0.0146294 1.75443 0.0571442 1.52581C0.128918 1.29718 0.264894 1.094 0.448877 0.940473C0.63286 0.786943 0.857095 0.689531 1.09488 0.659841C1.33266 0.63015 1.57396 0.669431 1.79005 0.773006V0.773006Z" fill="#4A62E0"/>
</svg>
